# File created by Blade
# Date/Time:  Tue Sep 30 19:36:36 2014
#---------------------------------------------------------
:version 1.10
:name HOM
:units
  mass 1.0
  length 1.000000
  angle deg
:documentation
     Acclaim Skeleton File
:root
   axis xyz
   order TX TY TZ RX RY RZ
   position 0.000000 0.000000 0.000000
   orientation 0 0 0
:bonedata
   begin
      id 1
      name Spine_dum
      direction 0.000000 1.000000 0.000000
      length 3.241213
      axis 0.0 0.0 0.0 xyz
   end
   begin
      id 2
      name LeftUpLeg_dum
      direction 1.000000 0.000000 0.000000
      length 3.434019
      axis 0.0 0.0 0.0 xyz
   end
   begin
      id 3
      name RightUpLeg_dum
      direction -1.000000 0.000000 0.000000
      length 3.434019
      axis 0.0 0.0 0.0 xyz
   end
   begin
      id 4
      name Spine
      direction 0.000000 1.000000 0.000000
      length 0.000000
      axis 0.0 0.0 0.0 xyz
      dof rx ry rz
   end
   begin
      id 5
      name Spine_dum1
      direction 0.000000 1.000000 0.000000
      length 18.382958
      axis 0.0 0.0 0.0 xyz
   end
   begin
      id 6
      name Spine_dum2
      direction 0.000000 1.000000 0.000000
      length 12.828261
      axis 0.0 0.0 0.0 xyz
   end
   begin
      id 7
      name Spine_dum3
      direction 0.000000 1.000000 0.000000
      length 12.828261
      axis 0.0 0.0 0.0 xyz
   end
   begin
      id 8
      name Head
      direction 0.000000 1.000000 0.000000
      length 4.527550
      axis 0.0 0.0 0.0 xyz
      dof rx ry rz
   end
   begin
      id 9
      name LeftShoulder
      direction 1.000000 0.000000 0.000000
      length 7.748055
      axis 0.0 0.0 -90.0 xyz
      dof rx ry rz
   end
   begin
      id 10
      name LeftArm
      direction 1.000000 0.000000 0.000000
      length 10.635614
      axis 0.0 0.0 -90.0 xyz
      dof rx ry rz
   end
   begin
      id 11
      name LeftForeArm
      direction 1.000000 0.000000 0.000000
      length 8.346755
      axis 0.0 0.0 -90.0 xyz
      dof ry rz rx
   end
   begin
      id 12
      name LeftHand
      direction 0.000000 0.000000 0.000000
      length 0.000000
      axis 0.0 0.0 -90.0 xyz
      dof rx ry rz
   end
   begin
      id 13
      name LeftHand_dum1
      direction 0.000000 0.000000 0.000000
      length 0.000000
      axis 0.0 0.0 -90.0 xyz
   end
   begin
      id 14
      name LeftHand_dum2
      direction 1.000000 0.000000 0.000000
      length 3.937000
      axis 0.0 0.0 -90.0 xyz
   end
   begin
      id 15
      name LeftHandThumb1
      direction 0.000000 0.000000 1.000000
      length 3.937000
      axis 0.0 0.0 -90.0 xyz
      dof rx rz ry
   end
   begin
      id 16
      name RightShoulder
      direction -1.000000 0.000000 0.000000
      length 7.748055
      axis 0.0 0.0 90.0 xyz
      dof rx ry rz
   end
   begin
      id 17
      name RightArm
      direction -1.000000 0.000000 0.000000
      length 10.635614
      axis 0.0 0.0 90.0 xyz
      dof rx ry rz
   end
   begin
      id 18
      name RightForeArm
      direction -1.000000 0.000000 0.000000
      length 8.346755
      axis 0.0 0.0 90.0 xyz
      dof ry rz rx
   end
   begin
      id 19
      name RightHand
      direction 0.000000 0.000000 0.000000
      length 0.000000
      axis 0.0 0.0 90.0 xyz
      dof rx ry rz
   end
   begin
      id 20
      name RightHand_dum1
      direction 0.000000 0.000000 0.000000
      length 0.000000
      axis 0.0 0.0 90.0 xyz
   end
   begin
      id 21
      name RightHand_dum2
      direction -1.000000 0.000000 0.000000
      length 3.937000
      axis 0.0 0.0 90.0 xyz
   end
   begin
      id 22
      name RightHandThumb1
      direction 0.000000 0.000000 1.000000
      length 3.937000
      axis 0.0 0.0 90.0 xyz
      dof rx rz ry
   end
   begin
      id 23
      name LeftUpLeg
      direction 0.000000 -1.000000 0.000000
      length 15.713025
      axis 0.0 0.0 0.0 xyz
      dof rx ry rz
   end
   begin
      id 24
      name LeftLeg
      direction 0.000000 -1.000000 0.000000
      length 14.435119
      axis 0.0 0.0 0.0 xyz
      dof rx ry rz
   end
   begin
      id 25
      name LeftFoot
      direction 0.000000 -0.258819 0.965926
      length 4.938895
      axis 15.0 0.0 0.0 xyz
      dof rx ry rz
   end
   begin
      id 26
      name LeftToeBase
      direction 0.000000 0.000000 1.000000
      length 2.952750
      axis 0.0 0.0 0.0 xyz
      dof rx ry rz
   end
   begin
      id 27
      name RightUpLeg
      direction 0.000000 -1.000000 0.000000
      length 15.713025
      axis 0.0 0.0 0.0 xyz
      dof rx ry rz
   end
   begin
      id 28
      name RightLeg
      direction 0.000000 -1.000000 0.000000
      length 14.435119
      axis 0.0 0.0 0.0 xyz
      dof rx ry rz
   end
   begin
      id 29
      name RightFoot
      direction 0.000000 -0.258819 0.965926
      length 4.938895
      axis 15.0 0.0 0.0 xyz
      dof rx ry rz
   end
   begin
      id 30
      name RightToeBase
      direction 0.000000 0.000000 1.000000
      length 2.952750
      axis 0.0 0.0 0.0 xyz
      dof rx ry rz
   end
:hierarchy
   begin
      root Spine_dum LeftUpLeg_dum RightUpLeg_dum
      Spine_dum Spine
      LeftUpLeg_dum LeftUpLeg
      RightUpLeg_dum RightUpLeg
      Spine Spine_dum1 Spine_dum2 Spine_dum3
      Spine_dum1 Head
      Spine_dum2 LeftShoulder
      Spine_dum3 RightShoulder
      LeftShoulder LeftArm
      LeftArm LeftForeArm
      LeftForeArm LeftHand
      LeftHand LeftHand_dum1 LeftHand_dum2
      LeftHand_dum1 LeftHandThumb1
      RightShoulder RightArm
      RightArm RightForeArm
      RightForeArm RightHand
      RightHand RightHand_dum1 RightHand_dum2
      RightHand_dum1 RightHandThumb1
      LeftUpLeg LeftLeg
      LeftLeg LeftFoot
      LeftFoot LeftToeBase
      RightUpLeg RightLeg
      RightLeg RightFoot
      RightFoot RightToeBase
   end

# File created by Blade
# Date/Time:  Tue Sep 23 19:22:32 2014
# Frame Rate: 120.000 fps
#------------------------------------------------------
:FULLY-SPECIFIED
:DEGREES
1109
root 2.123173 34.117557 -0.278355 121.441224 6.528148 -28.848951
Spine -75.325466 -10.834876 23.361543
Head -22.125904 19.917447 36.873763
LeftShoulder -18.800882 27.805379 41.798273
LeftArm 111.966495 -67.267097 -122.499284
LeftForeArm 48.038928 -0.000000 95.274139
LeftHand 13.759658 -0.000000 35.337352
LeftHandThumb1 -26.253704 0.000000 33.147579
RightShoulder -40.584580 -38.194514 -1.721764
RightArm 56.595129 67.997737 118.528979
RightForeArm 32.365462 -0.000000 40.795001
RightHand 4.957288 0.000000 -14.752293
RightHandThumb1 -24.326973 -0.000000 -32.862282
LeftUpLeg -122.284581 26.075573 -13.361927
LeftLeg -7.971460 -0.000000 0.000000
LeftFoot 1.902291 -21.639543 -16.475374
LeftToeBase -8.541339 -0.000000 0.000000
RightUpLeg 0.631391 8.081875 -30.827169
RightLeg 82.755323 -0.000000 -0.000000
RightFoot 44.643321 23.295519 2.238390
RightToeBase 31.834204 -0.000000 -0.000000
1110
root 2.098146 34.136553 -0.249468 120.914925 6.865367 -29.011496
Spine -74.901102 -10.924079 23.312055
Head -22.116652 19.849691 37.326814
LeftShoulder -18.580949 28.010407 41.975506
LeftArm 111.964216 -67.253097 -122.212446
LeftForeArm 49.326250 -0.000000 95.196276
LeftHand 12.661256 -0.000000 36.105090
LeftHandThumb1 -26.253704 0.000000 33.147579
RightShoulder -40.491557 -38.105696 -1.425138
RightArm 56.907344 68.016837 119.173479
RightForeArm 32.227330 0.000000 41.078149
RightHand 4.897061 -0.000000 -14.844716
RightHandThumb1 -24.326973 -0.000000 -32.862282
LeftUpLeg -121.882089 26.276253 -13.522319
LeftLeg -8.068558 -0.000000 0.000000
LeftFoot -0.317104 -19.279726 -14.626899
LeftToeBase -6.422680 -0.000000 0.000000
RightUpLeg 0.265169 8.480354 -30.697742
RightLeg 83.349220 -0.000000 -0.000000
RightFoot 44.924157 23.425440 2.359059
RightToeBase 31.826424 -0.000000 -0.000000
1111
root 2.078796 34.154238 -0.226048 120.422955 7.202424 -29.060949
Spine -74.492725 -11.043977 23.322875
Head -22.191268 19.807898 37.656800
LeftShoulder -18.427494 28.191709 42.083651
LeftArm 112.170529 -67.052130 -122.103553
LeftForeArm 50.203576 -0.000000 95.035598
LeftHand 12.210020 -0.000000 36.409629
LeftHandThumb1 -26.253704 0.000000 33.147579
RightShoulder -40.591162 -38.087308 -1.065360
RightArm 57.645365 67.904682 120.176136
RightForeArm 32.094091 0.000000 41.198021
RightHand 4.948742 -0.000000 -14.775477
RightHandThumb1 -24.326973 -0.000000 -32.862282
LeftUpLeg -121.569986 26.440635 -13.540089
LeftLeg -7.930292 -0.000000 0.000000
LeftFoot -2.354307 -16.224468 -13.536071
LeftToeBase -6.326745 -0.000000 0.000000
RightUpLeg -0.013008 8.689820 -30.563292
RightLeg 83.891202 -0.000000 -0.000000
RightFoot 44.976240 23.442856 2.354724
RightToeBase 31.852155 -0.000000 -0.000000
1112
root 2.058317 34.160787 -0.209030 119.843614 7.469600 -28.973962
Spine -74.029871 -11.286844 23.307685
Head -22.265229 19.729617 37.841461
LeftShoulder -18.268370 28.232318 42.159621
LeftArm 112.023925 -66.913054 -121.587306
LeftForeArm 51.311208 -0.000000 94.749536
LeftHand 11.547435 -0.000000 36.882269
LeftHandThumb1 -26.253704 0.000000 33.147579
RightShoulder -40.791937 -37.996434 -0.829310
RightArm 58.008370 67.747192 120.748929
RightForeArm 31.870035 -0.000000 41.143108
RightHand 4.960322 -0.000000 -14.569374
RightHandThumb1 -24.326973 -0.000000 -32.862282
LeftUpLeg -121.220643 26.411862 -13.577005
LeftLeg -7.729814 -0.000000 0.000000
LeftFoot -3.689178 -13.017325 -12.356921
LeftToeBase -5.972569 -0.000000 0.000000
RightUpLeg -0.010875 8.713900 -30.473718
RightLeg 84.281528 -0.000000 -0.000000
RightFoot 44.893756 23.515592 2.211952
RightToeBase 31.924739 -0.000000 -0.000000
1113
root 2.042721 34.162172 -0.192356 119.389341 7.677539 -28.815043
Spine -73.728281 -11.530205 23.297044
Head -22.293484 19.530052 37.936589
LeftShoulder -18.071529 28.188072 42.304792
LeftArm 111.491444 -66.806452 -120.732200
LeftForeArm 52.392444 -0.000000 94.408977
LeftHand 10.682170 -0.000000 37.464880
LeftHandThumb1 -26.253704 0.000000 33.147579
RightShoulder -41.015791 -38.074574 -0.607908
RightArm 58.154859 67.526134 121.019031
RightForeArm 31.909217 -0.000000 40.866778
RightHand 4.917210 -0.000000 -14.281989
RightHandThumb1 -24.326973 -0.000000 -32.862282
LeftUpLeg -121.005411 26.223121 -13.705884
LeftLeg -7.448794 -0.000000 0.000000
LeftFoot -4.706010 -10.167862 -11.857917
LeftToeBase -5.362841 -0.000000 0.000000
RightUpLeg -0.011733 8.519626 -30.480082
RightLeg 84.589970 -0.000000 -0.000000
RightFoot 44.693969 23.618467 1.920464
RightToeBase 31.901473 -0.000000 -0.000000
1114
root 2.033138 34.153258 -0.180464 118.941301 7.854965 -28.533563
Spine -73.458992 -11.836266 23.341616
Head -22.316966 19.251876 37.870396
LeftShoulder -17.780884 27.840278 42.664367
LeftArm 110.238300 -66.767955 -119.507512
LeftForeArm 53.039672 -0.000000 94.179442
LeftHand 10.388479 0.000000 37.529294
LeftHandThumb1 -26.253704 0.000000 33.147579
RightShoulder -41.152025 -38.082941 -0.593263
RightArm 57.616631 67.330119 120.511632
RightForeArm 32.161537 -0.000000 40.358424
RightHand 5.033910 -0.000000 -13.998063
RightHandThumb1 -24.326973 -0.000000 -32.862282
LeftUpLeg -120.882020 25.757731 -13.915603
LeftLeg -7.149853 -0.000000 0.000000
LeftFoot -4.853981 -8.700090 -11.919072
LeftToeBase -5.007407 -0.000000 0.000000
RightUpLeg 0.141794 8.172529 -30.513807
RightLeg 84.753158 -0.000000 -0.000000
RightFoot 44.434628 23.748177 1.575382
RightToeBase 31.953759 -0.000000 -0.000000
1115
root 2.029567 34.139869 -0.168280 118.666155 8.030033 -28.208476
Spine -73.373827 -12.045301 23.457808
Head -22.280193 18.953937 37.642548
LeftShoulder -17.730681 27.797206 42.584174
LeftArm 109.761082 -66.388638 -118.591348
LeftForeArm 54.162411 0.000000 93.746617
LeftHand 9.617752 -0.000000 38.042149
LeftHandThumb1 -26.253704 0.000000 33.147579
RightShoulder -41.264286 -38.197710 -0.685081
RightArm 57.001626 67.113892 119.880912
RightForeArm 32.743914 -0.000000 39.675261
RightHand 5.253019 -0.000000 -13.811023
RightHandThumb1 -24.326973 -0.000000 -32.862282
LeftUpLeg -120.895481 25.147658 -14.111529
LeftLeg -6.987677 -0.000000 0.000000
LeftFoot -4.208407 -8.299050 -11.168501
LeftToeBase -4.591251 -0.000000 0.000000
RightUpLeg 0.204808 7.642720 -30.628290
RightLeg 84.853002 -0.000000 -0.000000
RightFoot 44.065196 23.827377 1.152484
RightToeBase 31.986306 -0.000000 -0.000000
